g Combined Mesh (root: scene)
v -50 -7.450581E-06 -50.50002
v 50 -7.450581E-06 -50.50002
v -50 -7.808208E-06 -49.50002
v 50 -7.808208E-06 -49.50002
v -50 100 -49.49998
v 50 100 -49.49998
v -50 100 -50.49998
v 50 100 -50.49998
v -50 -7.808208E-06 -49.50002
v 50 -7.808208E-06 -49.50002
v -50 100 -49.49998
v 50 100 -49.49998
v -50 100 -50.49998
v 50 -7.450581E-06 -50.50002
v 50 100 -50.49998
v -50 -7.450581E-06 -50.50002
v 50 -7.450581E-06 -50.50002
v 50 100 -49.49998
v 50 100 -50.49998
v 50 -7.808208E-06 -49.50002
v -50 100 -50.49998
v -50 -7.808208E-06 -49.50002
v -50 -7.450581E-06 -50.50002
v -50 100 -49.49998
v -50 -7.450581E-06 49.49998
v 50 -7.450581E-06 49.49998
v -50 -7.808208E-06 50.49998
v 50 -7.808208E-06 50.49998
v -50 100 50.50002
v 50 100 50.50002
v -50 100 49.50002
v 50 100 49.50002
v -50 -7.808208E-06 50.49998
v 50 -7.808208E-06 50.49998
v -50 100 50.50002
v 50 100 50.50002
v -50 100 49.50002
v 50 -7.450581E-06 49.49998
v 50 100 49.50002
v -50 -7.450581E-06 49.49998
v 50 -7.450581E-06 49.49998
v 50 100 50.50002
v 50 100 49.50002
v 50 -7.808208E-06 50.49998
v -50 100 49.50002
v -50 -7.808208E-06 50.49998
v -50 -7.450581E-06 49.49998
v -50 100 50.50002
v -50.49998 100 50
v -50.50002 -7.450581E-06 50
v -49.49998 100 50
v -49.50002 -7.808208E-06 50
v -49.49998 100 -50
v -49.50002 -7.808208E-06 -50
v -50.49998 100 -50
v -50.50002 -7.450581E-06 -50
v -49.49998 100 50
v -49.50002 -7.808208E-06 50
v -49.49998 100 -50
v -49.50002 -7.808208E-06 -50
v -50.49998 100 -50
v -50.50002 -7.450581E-06 50
v -50.50002 -7.450581E-06 -50
v -50.49998 100 50
v -50.50002 -7.450581E-06 50
v -49.50002 -7.808208E-06 -50
v -50.50002 -7.450581E-06 -50
v -49.50002 -7.808208E-06 50
v -50.49998 100 -50
v -49.49998 100 50
v -50.49998 100 50
v -49.49998 100 -50
v 49.50002 100 50
v 49.49998 -1.126528E-05 50
v 50.50002 100 50
v 50.49998 -1.162291E-05 50
v 50.50002 100 -50
v 50.49998 -1.162291E-05 -50
v 49.50002 100 -50
v 49.49998 -1.126528E-05 -50
v 50.50002 100 50
v 50.49998 -1.162291E-05 50
v 50.50002 100 -50
v 50.49998 -1.162291E-05 -50
v 49.50002 100 -50
v 49.49998 -1.126528E-05 50
v 49.49998 -1.126528E-05 -50
v 49.50002 100 50
v 49.49998 -1.126528E-05 50
v 50.49998 -1.162291E-05 -50
v 49.49998 -1.126528E-05 -50
v 50.49998 -1.162291E-05 50
v 49.50002 100 -50
v 50.50002 100 50
v 49.50002 100 50
v 50.50002 100 -50
v -50 -0.5 50
v 50 -0.5 50
v -50 0.5 50
v 50 0.5 50
v -50 0.5 -50
v 50 0.5 -50
v -50 -0.5 -50
v 50 -0.5 -50
v -50 0.5 50
v 50 0.5 50
v -50 0.5 -50
v 50 0.5 -50
v -50 -0.5 -50
v 50 -0.5 50
v 50 -0.5 -50
v -50 -0.5 50
v 50 -0.5 50
v 50 0.5 -50
v 50 -0.5 -50
v 50 0.5 50
v -50 -0.5 -50
v -50 0.5 50
v -50 -0.5 50
v -50 0.5 -50
v -50 99.5 50
v 50 99.5 50
v -50 100.5 50
v 50 100.5 50
v -50 100.5 -50
v 50 100.5 -50
v -50 99.5 -50
v 50 99.5 -50
v -50 100.5 50
v 50 100.5 50
v -50 100.5 -50
v 50 100.5 -50
v -50 99.5 -50
v 50 99.5 50
v 50 99.5 -50
v -50 99.5 50
v 50 99.5 50
v 50 100.5 -50
v 50 99.5 -50
v 50 100.5 50
v -50 99.5 -50
v -50 100.5 50
v -50 99.5 50
v -50 100.5 -50
vt 0 0
vt 1 0
vt 0 1
vt 1 1
vt 0 1
vt 1 1
vt 0 1
vt 1 1
vt 0 0
vt 1 0
vt 0 0
vt 1 0
vt 0 0
vt 1 1
vt 1 0
vt 0 1
vt 0 0
vt 1 1
vt 1 0
vt 0 1
vt 0 0
vt 1 1
vt 1 0
vt 0 1
vt 0 0
vt 1 0
vt 0 1
vt 1 1
vt 0 1
vt 1 1
vt 0 1
vt 1 1
vt 0 0
vt 1 0
vt 0 0
vt 1 0
vt 0 0
vt 1 1
vt 1 0
vt 0 1
vt 0 0
vt 1 1
vt 1 0
vt 0 1
vt 0 0
vt 1 1
vt 1 0
vt 0 1
vt 0 0
vt 1 0
vt 0 1
vt 1 1
vt 0 1
vt 1 1
vt 0 1
vt 1 1
vt 0 0
vt 1 0
vt 0 0
vt 1 0
vt 0 0
vt 1 1
vt 1 0
vt 0 1
vt 0 0
vt 1 1
vt 1 0
vt 0 1
vt 0 0
vt 1 1
vt 1 0
vt 0 1
vt 0 0
vt 1 0
vt 0 1
vt 1 1
vt 0 1
vt 1 1
vt 0 1
vt 1 1
vt 0 0
vt 1 0
vt 0 0
vt 1 0
vt 0 0
vt 1 1
vt 1 0
vt 0 1
vt 0 0
vt 1 1
vt 1 0
vt 0 1
vt 0 0
vt 1 1
vt 1 0
vt 0 1
vt 0 0
vt 1 0
vt 0 1
vt 1 1
vt 0 1
vt 1 1
vt 0 1
vt 1 1
vt 0 0
vt 1 0
vt 0 0
vt 1 0
vt 0 0
vt 1 1
vt 1 0
vt 0 1
vt 0 0
vt 1 1
vt 1 0
vt 0 1
vt 0 0
vt 1 1
vt 1 0
vt 0 1
vt 0 0
vt 1 0
vt 0 1
vt 1 1
vt 0 1
vt 1 1
vt 0 1
vt 1 1
vt 0 0
vt 1 0
vt 0 0
vt 1 0
vt 0 0
vt 1 1
vt 1 0
vt 0 1
vt 0 0
vt 1 1
vt 1 0
vt 0 1
vt 0 0
vt 1 1
vt 1 0
vt 0 1
vn 0 -1 -3.576278E-07
vn 0 -1 -3.576278E-07
vn 0 -1 -3.576278E-07
vn 0 -1 -3.576278E-07
vn 0 -3.576278E-07 1
vn 0 -3.576278E-07 1
vn 0 1 3.576278E-07
vn 0 1 3.576278E-07
vn 0 -3.576278E-07 1
vn 0 -3.576278E-07 1
vn 0 1 3.576278E-07
vn 0 1 3.576278E-07
vn 0 3.576278E-07 -1
vn 0 3.576278E-07 -1
vn 0 3.576278E-07 -1
vn 0 3.576278E-07 -1
vn 1 0 0
vn 1 0 0
vn 1 0 0
vn 1 0 0
vn -1 0 0
vn -1 0 0
vn -1 0 0
vn -1 0 0
vn 0 -1 -3.576278E-07
vn 0 -1 -3.576278E-07
vn 0 -1 -3.576278E-07
vn 0 -1 -3.576278E-07
vn 0 -3.576278E-07 1
vn 0 -3.576278E-07 1
vn 0 1 3.576278E-07
vn 0 1 3.576278E-07
vn 0 -3.576278E-07 1
vn 0 -3.576278E-07 1
vn 0 1 3.576278E-07
vn 0 1 3.576278E-07
vn 0 3.576278E-07 -1
vn 0 3.576278E-07 -1
vn 0 3.576278E-07 -1
vn 0 3.576278E-07 -1
vn 1 0 0
vn 1 0 0
vn 1 0 0
vn 1 0 0
vn -1 0 0
vn -1 0 0
vn -1 0 0
vn -1 0 0
vn 0 0 1
vn 0 0 1
vn 0 0 1
vn 0 0 1
vn 1 -3.576278E-07 0
vn 1 -3.576278E-07 0
vn 0 0 -1
vn 0 0 -1
vn 1 -3.576278E-07 0
vn 1 -3.576278E-07 0
vn 0 0 -1
vn 0 0 -1
vn -1 3.576278E-07 0
vn -1 3.576278E-07 0
vn -1 3.576278E-07 0
vn -1 3.576278E-07 0
vn -3.576278E-07 -1 0
vn -3.576278E-07 -1 0
vn -3.576278E-07 -1 0
vn -3.576278E-07 -1 0
vn 3.576278E-07 1 0
vn 3.576278E-07 1 0
vn 3.576278E-07 1 0
vn 3.576278E-07 1 0
vn 0 0 1
vn 0 0 1
vn 0 0 1
vn 0 0 1
vn 1 -3.576278E-07 0
vn 1 -3.576278E-07 0
vn 0 0 -1
vn 0 0 -1
vn 1 -3.576278E-07 0
vn 1 -3.576278E-07 0
vn 0 0 -1
vn 0 0 -1
vn -1 3.576278E-07 0
vn -1 3.576278E-07 0
vn -1 3.576278E-07 0
vn -1 3.576278E-07 0
vn -3.576278E-07 -1 0
vn -3.576278E-07 -1 0
vn -3.576278E-07 -1 0
vn -3.576278E-07 -1 0
vn 3.576278E-07 1 0
vn 3.576278E-07 1 0
vn 3.576278E-07 1 0
vn 3.576278E-07 1 0
vn 0 0 1
vn 0 0 1
vn 0 0 1
vn 0 0 1
vn 0 1 0
vn 0 1 0
vn 0 0 -1
vn 0 0 -1
vn 0 1 0
vn 0 1 0
vn 0 0 -1
vn 0 0 -1
vn 0 -1 0
vn 0 -1 0
vn 0 -1 0
vn 0 -1 0
vn 1 0 0
vn 1 0 0
vn 1 0 0
vn 1 0 0
vn -1 0 0
vn -1 0 0
vn -1 0 0
vn -1 0 0
vn 0 0 1
vn 0 0 1
vn 0 0 1
vn 0 0 1
vn 0 1 0
vn 0 1 0
vn 0 0 -1
vn 0 0 -1
vn 0 1 0
vn 0 1 0
vn 0 0 -1
vn 0 0 -1
vn 0 -1 0
vn 0 -1 0
vn 0 -1 0
vn 0 -1 0
vn 1 0 0
vn 1 0 0
vn 1 0 0
vn 1 0 0
vn -1 0 0
vn -1 0 0
vn -1 0 0
vn -1 0 0
g Combined Mesh (root: scene)_0
f 2/2/2 4/4/4 1/1/1
f 4/4/4 3/3/3 1/1/1
f 10/10/10 6/6/6 9/9/9
f 6/6/6 5/5/5 9/9/9
f 12/12/12 8/8/8 11/11/11
f 8/8/8 7/7/7 11/11/11
f 15/15/15 14/14/14 13/13/13
f 14/14/14 16/16/16 13/13/13
f 19/19/19 18/18/18 17/17/17
f 18/18/18 20/20/20 17/17/17
f 23/23/23 22/22/22 21/21/21
f 22/22/22 24/24/24 21/21/21
g Combined Mesh (root: scene)_1
f 26/26/26 28/28/28 25/25/25
f 28/28/28 27/27/27 25/25/25
f 34/34/34 30/30/30 33/33/33
f 30/30/30 29/29/29 33/33/33
f 36/36/36 32/32/32 35/35/35
f 32/32/32 31/31/31 35/35/35
f 39/39/39 38/38/38 37/37/37
f 38/38/38 40/40/40 37/37/37
f 43/43/43 42/42/42 41/41/41
f 42/42/42 44/44/44 41/41/41
f 47/47/47 46/46/46 45/45/45
f 46/46/46 48/48/48 45/45/45
g Combined Mesh (root: scene)_2
f 50/50/50 52/52/52 49/49/49
f 52/52/52 51/51/51 49/49/49
f 58/58/58 54/54/54 57/57/57
f 54/54/54 53/53/53 57/57/57
f 60/60/60 56/56/56 59/59/59
f 56/56/56 55/55/55 59/59/59
f 63/63/63 62/62/62 61/61/61
f 62/62/62 64/64/64 61/61/61
f 67/67/67 66/66/66 65/65/65
f 66/66/66 68/68/68 65/65/65
f 71/71/71 70/70/70 69/69/69
f 70/70/70 72/72/72 69/69/69
g Combined Mesh (root: scene)_3
f 74/74/74 76/76/76 73/73/73
f 76/76/76 75/75/75 73/73/73
f 82/82/82 78/78/78 81/81/81
f 78/78/78 77/77/77 81/81/81
f 84/84/84 80/80/80 83/83/83
f 80/80/80 79/79/79 83/83/83
f 87/87/87 86/86/86 85/85/85
f 86/86/86 88/88/88 85/85/85
f 91/91/91 90/90/90 89/89/89
f 90/90/90 92/92/92 89/89/89
f 95/95/95 94/94/94 93/93/93
f 94/94/94 96/96/96 93/93/93
g Combined Mesh (root: scene)_4
f 98/98/98 100/100/100 97/97/97
f 100/100/100 99/99/99 97/97/97
f 106/106/106 102/102/102 105/105/105
f 102/102/102 101/101/101 105/105/105
f 108/108/108 104/104/104 107/107/107
f 104/104/104 103/103/103 107/107/107
f 111/111/111 110/110/110 109/109/109
f 110/110/110 112/112/112 109/109/109
f 115/115/115 114/114/114 113/113/113
f 114/114/114 116/116/116 113/113/113
f 119/119/119 118/118/118 117/117/117
f 118/118/118 120/120/120 117/117/117
g Combined Mesh (root: scene)_5
f 122/122/122 124/124/124 121/121/121
f 124/124/124 123/123/123 121/121/121
f 130/130/130 126/126/126 129/129/129
f 126/126/126 125/125/125 129/129/129
f 132/132/132 128/128/128 131/131/131
f 128/128/128 127/127/127 131/131/131
f 135/135/135 134/134/134 133/133/133
f 134/134/134 136/136/136 133/133/133
f 139/139/139 138/138/138 137/137/137
f 138/138/138 140/140/140 137/137/137
f 143/143/143 142/142/142 141/141/141
f 142/142/142 144/144/144 141/141/141
