g 
v 145.4853 12 131.4853
v 128.5147 22 114.5147
v 128.5147 12 114.5147
v 145.4853 22 131.4853
v -76.11771 12 127.5111
v -83.88229 22 156.4889
v -83.88229 12 156.4889
v -76.11771 22 127.5111
v 111.0147 12 130.9853
v 127.9853 22 114.0147
v 127.9853 12 114.0147
v 111.0147 22 130.9853
v -75.31852 12 127.3236
v -36.68148 22 137.6764
v -36.68148 12 137.6764
v -75.31852 22 127.3236
v -36.11772 12 138.5111
v -43.88228 22 167.4889
v -43.88228 12 167.4889
v -36.11772 22 138.5111
v 128.4853 12 148.4853
v 111.5147 22 131.5147
v 111.5147 12 131.5147
v 128.4853 22 148.4853
vt 0 0
vt 1 1
vt 1 0
vt 0 1
vt 0 0
vt 1 1
vt 1 0
vt 0 1
vt 0 0
vt 1 1
vt 1 0
vt 0 1
vt 0 0
vt 1 1
vt 1 0
vt 0 1
vt 0 0
vt 1 1
vt 1 0
vt 0 1
vt 0 0
vt 1 1
vt 1 0
vt 0 1
vn 0.7071069 0 -0.7071068
vn 0.7071069 0 -0.7071068
vn 0.7071069 0 -0.7071068
vn 0.7071069 0 -0.7071068
vn -0.9659259 0 -0.2588189
vn -0.9659259 0 -0.2588189
vn -0.9659259 0 -0.2588189
vn -0.9659259 0 -0.2588189
vn 0.7071066 0 0.707107
vn 0.7071066 0 0.707107
vn 0.7071066 0 0.707107
vn 0.7071066 0 0.707107
vn -0.2588187 0 0.9659259
vn -0.2588187 0 0.9659259
vn -0.2588187 0 0.9659259
vn -0.2588187 0 0.9659259
vn -0.9659259 0 -0.2588189
vn -0.9659259 0 -0.2588189
vn -0.9659259 0 -0.2588189
vn -0.9659259 0 -0.2588189
vn 0.7071069 0 -0.7071068
vn 0.7071069 0 -0.7071068
vn 0.7071069 0 -0.7071068
vn 0.7071069 0 -0.7071068
g _0
f 3/3/3 2/2/2 1/1/1
f 4/4/4 1/1/1 2/2/2
f 7/7/7 6/6/6 5/5/5
f 8/8/8 5/5/5 6/6/6
f 11/11/11 10/10/10 9/9/9
f 12/12/12 9/9/9 10/10/10
f 15/15/15 14/14/14 13/13/13
f 16/16/16 13/13/13 14/14/14
f 19/19/19 18/18/18 17/17/17
f 20/20/20 17/17/17 18/18/18
f 23/23/23 22/22/22 21/21/21
f 24/24/24 21/21/21 22/22/22
