g 
v 13 14.8 -92
v -29 32.8 -92
v -29 14.8 -92
v 13 32.8 -92
v -100.5 14.8 -92
v -142.5 32.8 -92
v -142.5 14.8 -92
v -100.5 32.8 -92
v -125.625 59.875 -0.1250005
v -125.625 63.875 -14.125
v -125.625 59.875 -14.125
v -125.625 63.875 -0.1250005
v -105 37.375 60.85
v -105 41.375 46.85
v -105 37.375 46.85
v -105 41.375 60.85
v 7.735089 37.375 -0.07663679
v 6.514911 41.375 -14.02336
v 6.514911 37.375 -14.02336
v 7.735089 41.375 -0.07663679
v -22 37.5 115
v -48 55.5 115
v -48 37.5 115
v -22 55.5 115
v 105.75 37.375 2.5
v 105.75 41.375 -11.5
v 105.75 37.375 -11.5
v 105.75 41.375 2.5
v 2.153397 37.375 27.65664
v 6.246603 41.375 14.26837
v 6.246603 37.375 14.26837
v 2.153397 41.375 27.65664
v 105.75 37.375 31
v 105.75 41.375 17
v 105.75 37.375 17
v 105.75 41.375 31
v -104.5806 37.375 -60.4637
v -92.21936 41.375 -67.0363
v -92.21936 37.375 -67.0363
v -104.5806 41.375 -60.4637
v -125.625 37.375 29.25
v -125.625 41.375 14.25
v -125.625 37.375 14.25
v -125.625 41.375 29.25
v -4.486302 37.375 40.23064
v 2.086303 41.375 27.86937
v 2.086303 37.375 27.86937
v -4.486302 41.375 40.23064
v -105 59.875 -46.85
v -105 63.875 -60.85
v -105 59.875 -60.85
v -105 63.875 -46.85
v -20 37.5 113
v -20 55.5 101
v -20 37.5 101
v -20 55.5 113
v 69.375 37.375 -125.75
v 69.375 41.375 -139.75
v 69.375 37.375 -139.75
v 69.375 41.375 -125.75
v -4.486302 37.375 -40.23064
v 2.086303 41.375 -27.86937
v 2.086303 37.375 -27.86937
v -4.486302 41.375 -40.23064
v 128.25 37.38 42
v 128.25 41.38 32
v 128.25 37.38 32
v 128.25 41.38 42
v -123.9 37.35062 30.59131
v -123.9 18.14938 -30.59131
v -123.9 14.41506 -29.15784
v -123.9 41.08494 29.15784
v -125.625 59.875 -14.25
v -125.625 63.875 -29.25
v -125.625 59.875 -29.25
v -125.625 63.875 -14.25
v -78.66165 37.375 71.11831
v -64.73834 41.375 72.5817
v -64.73834 37.375 72.5817
v -78.66165 41.375 71.11831
v -50.49414 37.375 71.0466
v -37.10587 41.375 66.9534
v -37.10587 37.375 66.9534
v -50.49414 41.375 71.0466
v -82 37.5 115
v -108 55.5 115
v -108 37.5 115
v -82 55.5 115
v -115.125 14.41506 29.15784
v -115.125 41.08494 -29.15784
v -115.125 37.35062 -30.59131
v -115.125 18.14938 30.59131
v 105.75 37.375 16.75
v 105.75 41.375 2.75
v 105.75 37.375 2.75
v 105.75 41.375 16.75
v -92.19414 37.375 66.9534
v -78.80586 41.375 71.0466
v -78.80586 37.375 71.0466
v -92.19414 41.375 66.9534
v -13.50702 37.375 50.96231
v -4.507984 41.375 40.23769
v -4.507984 37.375 40.23769
v -13.50702 41.375 50.96231
v -104.5806 37.375 60.4637
v -92.21936 41.375 67.0363
v -92.21936 37.375 67.0363
v -104.5806 41.375 60.4637
v -92.19414 37.375 -66.9534
v -78.80586 41.375 -71.0466
v -78.80586 37.375 -71.0466
v -92.19414 41.375 -66.9534
v -125.625 59.875 29.25
v -125.625 63.875 14.25
v -125.625 59.875 14.25
v -125.625 63.875 29.25
v -105 37.375 -46.85
v -105 41.375 -60.85
v -105 37.375 -60.85
v -105 41.375 -46.85
v 69.375 37.375 -97.25
v 69.375 41.375 -111.25
v 69.375 37.375 -111.25
v 69.375 41.375 -97.25
v -125.625 59.875 14.125
v -125.625 63.875 0.1250005
v -125.625 59.875 0.1250005
v -125.625 63.875 14.125
v 12 14.8 85
v -30 32.8 85
v -30 14.8 85
v 12 32.8 85
v -125.625 37.375 -0.1250005
v -125.625 41.375 -14.125
v -125.625 37.375 -14.125
v -125.625 41.375 -0.1250005
v -33 14.8 105
v -33 32.8 85
v -33 14.8 85
v -33 32.8 105
v -33 14.8 137
v -33 32.8 127
v -33 14.8 127
v -33 32.8 137
v -116.85 37.35062 30.59131
v -116.85 18.14938 -30.59131
v -116.85 14.41506 -29.15784
v -116.85 41.08494 29.15784
v -24.41231 37.375 60.14951
v -13.68769 41.375 51.15049
v -13.68769 37.375 51.15049
v -24.41231 41.375 60.14951
v -32 37.5 -93
v -48 55.5 -93
v -48 37.5 -93
v -32 55.5 -93
v 128.25 37.38 51.5
v 128.25 41.38 41.5
v 128.25 37.38 41.5
v 128.25 41.38 51.5
v -31 14.8 -92
v -73 32.8 -92
v -73 14.8 -92
v -31 32.8 -92
v -107.25 36.91506 29.15784
v -107.25 63.58494 -29.15784
v -107.25 59.85062 -30.59131
v -107.25 40.64938 30.59131
v -105 37.375 46.75
v -105 41.375 32.75
v -105 37.375 32.75
v -105 41.375 46.75
v 106.75 37.67585 32.39342
v 106.75 15.82415 -27.89342
v 106.75 12.15591 -26.29842
v 106.75 41.34409 30.79842
v -105 37.375 -32.75
v -105 41.375 -46.75
v -105 37.375 -46.75
v -105 41.375 -32.75
v 105.75 37.375 -25.625
v 105.75 41.375 -39.625
v 105.75 37.375 -39.625
v 105.75 41.375 -25.625
v -36.93063 37.375 66.8863
v -24.56937 41.375 60.3137
v -24.56937 37.375 60.3137
v -36.93063 41.375 66.8863
v -36.93063 37.375 -66.8863
v -24.56937 41.375 -60.3137
v -24.56937 37.375 -60.3137
v -36.93063 41.375 -66.8863
v 153 33 54
v 153 57 -54
v 153 33 -54
v 153 57 54
v 69.375 37.375 -83
v 69.375 41.375 -97
v 69.375 37.375 -97
v 69.375 41.375 -83
v -64.56166 37.375 -72.5817
v -50.63835 41.375 -71.11831
v -50.63835 37.375 -71.11831
v -64.56166 41.375 -72.5817
v -110 37.5 113
v -110 55.5 101
v -110 37.5 101
v -110 55.5 113
v 105.75 37.375 -11.75
v 105.75 41.375 -25.75
v 105.75 37.375 -25.75
v 105.75 41.375 -11.75
v -125.625 37.375 14.125
v -125.625 41.375 0.1250005
v -125.625 37.375 0.1250005
v -125.625 41.375 14.125
v -64.56166 37.375 72.5817
v -50.63835 41.375 71.11831
v -50.63835 37.375 71.11831
v -64.56166 41.375 72.5817
v -30 37.5 -95
v -30 55.5 -113
v -30 37.5 -113
v -30 55.5 -95
v -124.5 59.85062 30.59131
v -124.5 40.64938 -30.59131
v -124.5 36.91506 -29.15784
v -124.5 63.58494 29.15784
v -78.66165 37.375 -71.11831
v -64.73834 41.375 -72.5817
v -64.73834 37.375 -72.5817
v -78.66165 41.375 -71.11831
v 6.271913 37.375 13.99782
v 7.978087 41.375 0.1021762
v 7.978087 37.375 0.1021762
v 6.271913 41.375 13.99782
v -105 59.875 -32.75
v -105 63.875 -46.75
v -105 59.875 -46.75
v -105 63.875 -32.75
v -115.125 36.91506 29.15784
v -115.125 63.58494 -29.15784
v -115.125 59.85062 -30.59131
v -115.125 40.64938 30.59131
v -13.50702 37.375 -50.96231
v -4.507984 41.375 -40.23769
v -4.507984 37.375 -40.23769
v -13.50702 41.375 -50.96231
v -50.49414 37.375 -71.0466
v -37.10587 41.375 -66.9534
v -37.10587 37.375 -66.9534
v -50.49414 41.375 -71.0466
v -24.41231 37.375 -60.14951
v -13.68769 41.375 -51.15049
v -13.68769 37.375 -51.15049
v -24.41231 41.375 -60.14951
v -116.85 59.85062 30.59131
v -116.85 40.64938 -30.59131
v -116.85 36.91506 -29.15784
v -116.85 63.58494 29.15784
v -81.4 37.5 -93
v -149.4 55.5 -93
v -149.4 37.5 -93
v -81.4 55.5 -93
v 128.25 37.67585 32.39342
v 128.25 15.82415 -27.89342
v 128.25 12.15591 -26.29842
v 128.25 41.34409 30.79842
v -105 59.875 60.85
v -105 63.875 46.85
v -105 59.875 46.85
v -105 63.875 60.85
v -107.25 14.41506 29.15784
v -107.25 41.08494 -29.15784
v -107.25 37.35062 -30.59131
v -107.25 18.14938 30.59131
v -112 37.5 100
v -148 55.5 100
v -148 37.5 100
v -112 55.5 100
v -125.625 37.375 -14.25
v -125.625 41.375 -29.25
v -125.625 37.375 -29.25
v -125.625 41.375 -14.25
v 2.153397 37.375 -27.65664
v 6.246603 41.375 -14.26837
v 6.246603 37.375 -14.26837
v 2.153397 41.375 -27.65664
v 18 37.5 100
v -18 55.5 100
v -18 37.5 100
v 18 55.5 100
v -105 59.875 46.75
v -105 63.875 32.75
v -105 59.875 32.75
v -105 63.875 46.75
v 105.75 37.38 -39.25
v 105.75 41.38 -53.25
v 105.75 37.38 -53.25
v 105.75 41.38 -39.25
v 69.375 37.375 -111.5
v 69.375 41.375 -125.5
v 69.375 37.375 -125.5
v 69.375 41.375 -111.5
vt 0 0
vt 1 1
vt 1 0
vt 0 1
vt 0 0
vt 1 1
vt 1 0
vt 0 1
vt 0 0
vt 1 1
vt 1 0
vt 0 1
vt 0 0
vt 1 1
vt 1 0
vt 0 1
vt 0 0
vt 1 1
vt 1 0
vt 0 1
vt 0 0
vt 1 1
vt 1 0
vt 0 1
vt 0 0
vt 1 1
vt 1 0
vt 0 1
vt 0 0
vt 1 1
vt 1 0
vt 0 1
vt 0 0
vt 1 1
vt 1 0
vt 0 1
vt 0 0
vt 1 1
vt 1 0
vt 0 1
vt 0 0
vt 1 1
vt 1 0
vt 0 1
vt 0 0
vt 1 1
vt 1 0
vt 0 1
vt 0 0
vt 1 1
vt 1 0
vt 0 1
vt 0 0
vt 1 1
vt 1 0
vt 0 1
vt 0 0
vt 1 1
vt 1 0
vt 0 1
vt 0 0
vt 1 1
vt 1 0
vt 0 1
vt 0 0
vt 1 1
vt 1 0
vt 0 1
vt 0 0
vt 1 1
vt 1 0
vt 0 1
vt 0 0
vt 1 1
vt 1 0
vt 0 1
vt 0 0
vt 1 1
vt 1 0
vt 0 1
vt 0 0
vt 1 1
vt 1 0
vt 0 1
vt 0 0
vt 1 1
vt 1 0
vt 0 1
vt 0 0
vt 1 1
vt 1 0
vt 0 1
vt 0 0
vt 1 1
vt 1 0
vt 0 1
vt 0 0
vt 1 1
vt 1 0
vt 0 1
vt 0 0
vt 1 1
vt 1 0
vt 0 1
vt 0 0
vt 1 1
vt 1 0
vt 0 1
vt 0 0
vt 1 1
vt 1 0
vt 0 1
vt 0 0
vt 1 1
vt 1 0
vt 0 1
vt 0 0
vt 1 1
vt 1 0
vt 0 1
vt 0 0
vt 1 1
vt 1 0
vt 0 1
vt 0 0
vt 1 1
vt 1 0
vt 0 1
vt 0 0
vt 1 1
vt 1 0
vt 0 1
vt 0 0
vt 1 1
vt 1 0
vt 0 1
vt 0 0
vt 1 1
vt 1 0
vt 0 1
vt 0 0
vt 1 1
vt 1 0
vt 0 1
vt 0 0
vt 1 1
vt 1 0
vt 0 1
vt 0 0
vt 1 1
vt 1 0
vt 0 1
vt 0 0
vt 1 1
vt 1 0
vt 0 1
vt 0 0
vt 1 1
vt 1 0
vt 0 1
vt 0 0
vt 1 1
vt 1 0
vt 0 1
vt 0 0
vt 1 1
vt 1 0
vt 0 1
vt 0 0
vt 1 1
vt 1 0
vt 0 1
vt 0 0
vt 1 1
vt 1 0
vt 0 1
vt 0 0
vt 1 1
vt 1 0
vt 0 1
vt 0 0
vt 1 1
vt 1 0
vt 0 1
vt 0 0
vt 1 1
vt 1 0
vt 0 1
vt 0 0
vt 1 1
vt 1 0
vt 0 1
vt 0 0
vt 1 1
vt 1 0
vt 0 1
vt 0 0
vt 1 1
vt 1 0
vt 0 1
vt 0 0
vt 1 1
vt 1 0
vt 0 1
vt 0 0
vt 1 1
vt 1 0
vt 0 1
vt 0 0
vt 1 1
vt 1 0
vt 0 1
vt 0 0
vt 1 1
vt 1 0
vt 0 1
vt 0 0
vt 1 1
vt 1 0
vt 0 1
vt 0 0
vt 1 1
vt 1 0
vt 0 1
vt 0 0
vt 1 1
vt 1 0
vt 0 1
vt 0 0
vt 1 1
vt 1 0
vt 0 1
vt 0 0
vt 1 1
vt 1 0
vt 0 1
vt 0 0
vt 1 1
vt 1 0
vt 0 1
vt 0 0
vt 1 1
vt 1 0
vt 0 1
vt 0 0
vt 1 1
vt 1 0
vt 0 1
vt 0 0
vt 1 1
vt 1 0
vt 0 1
vt 0 0
vt 1 1
vt 1 0
vt 0 1
vt 0 0
vt 1 1
vt 1 0
vt 0 1
vt 0 0
vt 1 1
vt 1 0
vt 0 1
vt 0 0
vt 1 1
vt 1 0
vt 0 1
vt 0 0
vt 1 1
vt 1 0
vt 0 1
vt 0 0
vt 1 1
vt 1 0
vt 0 1
vt 0 0
vt 1 1
vt 1 0
vt 0 1
vt 0 0
vt 1 1
vt 1 0
vt 0 1
vt 0 0
vt 1 1
vt 1 0
vt 0 1
vt 0 0
vt 1 1
vt 1 0
vt 0 1
vt 0 0
vt 1 1
vt 1 0
vt 0 1
vt 0 0
vt 1 1
vt 1 0
vt 0 1
vt 0 0
vt 1 1
vt 1 0
vt 0 1
vn 0 0 -1
vn 0 0 -1
vn 0 0 -1
vn 0 0 -1
vn 0 0 -1
vn 0 0 -1
vn 0 0 -1
vn 0 0 -1
vn 1 0 1.192093E-07
vn 1 0 1.192093E-07
vn 1 0 1.192093E-07
vn 1 0 1.192093E-07
vn 1 0 1.192093E-07
vn 1 0 1.192093E-07
vn 1 0 1.192093E-07
vn 1 0 1.192093E-07
vn 0.9961948 0 -0.08715559
vn 0.9961948 0 -0.08715559
vn 0.9961948 0 -0.08715559
vn 0.9961948 0 -0.08715559
vn 0 0 -1
vn 0 0 -1
vn 0 0 -1
vn 0 0 -1
vn 1 0 1.192093E-07
vn 1 0 1.192093E-07
vn 1 0 1.192093E-07
vn 1 0 1.192093E-07
vn 0.9563047 0 0.2923719
vn 0.9563047 0 0.2923719
vn 0.9563047 0 0.2923719
vn 0.9563047 0 0.2923719
vn 1 0 1.192093E-07
vn 1 0 1.192093E-07
vn 1 0 1.192093E-07
vn 1 0 1.192093E-07
vn 0.4694713 0 0.8829477
vn 0.4694713 0 0.8829477
vn 0.4694713 0 0.8829477
vn 0.4694713 0 0.8829477
vn 1 0 1.192093E-07
vn 1 0 1.192093E-07
vn 1 0 1.192093E-07
vn 1 0 1.192093E-07
vn 0.8829474 0 0.4694718
vn 0.8829474 0 0.4694718
vn 0.8829474 0 0.4694718
vn 0.8829474 0 0.4694718
vn 1 0 1.192093E-07
vn 1 0 1.192093E-07
vn 1 0 1.192093E-07
vn 1 0 1.192093E-07
vn 1 0 1.192093E-07
vn 1 0 1.192093E-07
vn 1 0 1.192093E-07
vn 1 0 1.192093E-07
vn 1 0 1.192093E-07
vn 1 0 1.192093E-07
vn 1 0 1.192093E-07
vn 1 0 1.192093E-07
vn -0.8829474 0 0.4694718
vn -0.8829474 0 0.4694718
vn -0.8829474 0 0.4694718
vn -0.8829474 0 0.4694718
vn 1 0 1.192093E-07
vn 1 0 1.192093E-07
vn 1 0 1.192093E-07
vn 1 0 1.192093E-07
vn 1 -1.490116E-08 3.576278E-07
vn 1 -1.490116E-08 3.576278E-07
vn 1 -1.490116E-08 3.576278E-07
vn 1 -1.490116E-08 3.576278E-07
vn 1 0 1.192093E-07
vn 1 0 1.192093E-07
vn 1 0 1.192093E-07
vn 1 0 1.192093E-07
vn -0.1045287 0 0.9945219
vn -0.1045287 0 0.9945219
vn -0.1045287 0 0.9945219
vn -0.1045287 0 0.9945219
vn 0.2923714 0 0.9563048
vn 0.2923714 0 0.9563048
vn 0.2923714 0 0.9563048
vn 0.2923714 0 0.9563048
vn 0 0 -1
vn 0 0 -1
vn 0 0 -1
vn 0 0 -1
vn 1 1.490116E-08 3.576278E-07
vn 1 1.490116E-08 3.576278E-07
vn 1 1.490116E-08 3.576278E-07
vn 1 1.490116E-08 3.576278E-07
vn 1 0 1.192093E-07
vn 1 0 1.192093E-07
vn 1 0 1.192093E-07
vn 1 0 1.192093E-07
vn -0.2923714 0 0.9563048
vn -0.2923714 0 0.9563048
vn -0.2923714 0 0.9563048
vn -0.2923714 0 0.9563048
vn 0.7660443 0 0.6427878
vn 0.7660443 0 0.6427878
vn 0.7660443 0 0.6427878
vn 0.7660443 0 0.6427878
vn -0.4694713 0 0.8829477
vn -0.4694713 0 0.8829477
vn -0.4694713 0 0.8829477
vn -0.4694713 0 0.8829477
vn 0.2923714 0 0.9563048
vn 0.2923714 0 0.9563048
vn 0.2923714 0 0.9563048
vn 0.2923714 0 0.9563048
vn 1 0 1.192093E-07
vn 1 0 1.192093E-07
vn 1 0 1.192093E-07
vn 1 0 1.192093E-07
vn 1 0 1.192093E-07
vn 1 0 1.192093E-07
vn 1 0 1.192093E-07
vn 1 0 1.192093E-07
vn 1 0 1.192093E-07
vn 1 0 1.192093E-07
vn 1 0 1.192093E-07
vn 1 0 1.192093E-07
vn 1 0 1.192093E-07
vn 1 0 1.192093E-07
vn 1 0 1.192093E-07
vn 1 0 1.192093E-07
vn 0 0 -1
vn 0 0 -1
vn 0 0 -1
vn 0 0 -1
vn 1 0 1.192093E-07
vn 1 0 1.192093E-07
vn 1 0 1.192093E-07
vn 1 0 1.192093E-07
vn 1 0 1.192093E-07
vn 1 0 1.192093E-07
vn 1 0 1.192093E-07
vn 1 0 1.192093E-07
vn 1 0 1.192093E-07
vn 1 0 1.192093E-07
vn 1 0 1.192093E-07
vn 1 0 1.192093E-07
vn 1 -1.490116E-08 3.576278E-07
vn 1 -1.490116E-08 3.576278E-07
vn 1 -1.490116E-08 3.576278E-07
vn 1 -1.490116E-08 3.576278E-07
vn 0.6427874 0 0.7660446
vn 0.6427874 0 0.7660446
vn 0.6427874 0 0.7660446
vn 0.6427874 0 0.7660446
vn 0 0 -1
vn 0 0 -1
vn 0 0 -1
vn 0 0 -1
vn 1 0 1.192093E-07
vn 1 0 1.192093E-07
vn 1 0 1.192093E-07
vn 1 0 1.192093E-07
vn 0 0 -1
vn 0 0 -1
vn 0 0 -1
vn 0 0 -1
vn 1 1.490116E-08 3.576278E-07
vn 1 1.490116E-08 3.576278E-07
vn 1 1.490116E-08 3.576278E-07
vn 1 1.490116E-08 3.576278E-07
vn 1 0 1.192093E-07
vn 1 0 1.192093E-07
vn 1 0 1.192093E-07
vn 1 0 1.192093E-07
vn 1 -1.490116E-08 2.384186E-07
vn 1 -1.490116E-08 2.384186E-07
vn 1 -1.490116E-08 2.384186E-07
vn 1 -1.490116E-08 2.384186E-07
vn 1 0 1.192093E-07
vn 1 0 1.192093E-07
vn 1 0 1.192093E-07
vn 1 0 1.192093E-07
vn 1 0 1.192093E-07
vn 1 0 1.192093E-07
vn 1 0 1.192093E-07
vn 1 0 1.192093E-07
vn 0.4694713 0 0.8829477
vn 0.4694713 0 0.8829477
vn 0.4694713 0 0.8829477
vn 0.4694713 0 0.8829477
vn -0.4694713 0 0.8829477
vn -0.4694713 0 0.8829477
vn -0.4694713 0 0.8829477
vn -0.4694713 0 0.8829477
vn 1 0 1.192093E-07
vn 1 0 1.192093E-07
vn 1 0 1.192093E-07
vn 1 0 1.192093E-07
vn 1 0 1.192093E-07
vn 1 0 1.192093E-07
vn 1 0 1.192093E-07
vn 1 0 1.192093E-07
vn -0.1045282 0 0.9945219
vn -0.1045282 0 0.9945219
vn -0.1045282 0 0.9945219
vn -0.1045282 0 0.9945219
vn 1 0 1.192093E-07
vn 1 0 1.192093E-07
vn 1 0 1.192093E-07
vn 1 0 1.192093E-07
vn 1 0 1.192093E-07
vn 1 0 1.192093E-07
vn 1 0 1.192093E-07
vn 1 0 1.192093E-07
vn 1 0 1.192093E-07
vn 1 0 1.192093E-07
vn 1 0 1.192093E-07
vn 1 0 1.192093E-07
vn 0.1045282 0 0.9945219
vn 0.1045282 0 0.9945219
vn 0.1045282 0 0.9945219
vn 0.1045282 0 0.9945219
vn 1 0 1.192093E-07
vn 1 0 1.192093E-07
vn 1 0 1.192093E-07
vn 1 0 1.192093E-07
vn 1 -1.490116E-08 3.576278E-07
vn 1 -1.490116E-08 3.576278E-07
vn 1 -1.490116E-08 3.576278E-07
vn 1 -1.490116E-08 3.576278E-07
vn 0.1045282 0 0.9945219
vn 0.1045282 0 0.9945219
vn 0.1045282 0 0.9945219
vn 0.1045282 0 0.9945219
vn 0.9925461 0 0.1218696
vn 0.9925461 0 0.1218696
vn 0.9925461 0 0.1218696
vn 0.9925461 0 0.1218696
vn 1 0 1.192093E-07
vn 1 0 1.192093E-07
vn 1 0 1.192093E-07
vn 1 0 1.192093E-07
vn 1 1.490116E-08 3.576278E-07
vn 1 1.490116E-08 3.576278E-07
vn 1 1.490116E-08 3.576278E-07
vn 1 1.490116E-08 3.576278E-07
vn -0.7660443 0 0.6427878
vn -0.7660443 0 0.6427878
vn -0.7660443 0 0.6427878
vn -0.7660443 0 0.6427878
vn -0.2923714 0 0.9563048
vn -0.2923714 0 0.9563048
vn -0.2923714 0 0.9563048
vn -0.2923714 0 0.9563048
vn -0.6427874 0 0.7660446
vn -0.6427874 0 0.7660446
vn -0.6427874 0 0.7660446
vn -0.6427874 0 0.7660446
vn 1 -1.490116E-08 3.576278E-07
vn 1 -1.490116E-08 3.576278E-07
vn 1 -1.490116E-08 3.576278E-07
vn 1 -1.490116E-08 3.576278E-07
vn 0 0 -1
vn 0 0 -1
vn 0 0 -1
vn 0 0 -1
vn 1 -1.490116E-08 2.384186E-07
vn 1 -1.490116E-08 2.384186E-07
vn 1 -1.490116E-08 2.384186E-07
vn 1 -1.490116E-08 2.384186E-07
vn 1 0 1.192093E-07
vn 1 0 1.192093E-07
vn 1 0 1.192093E-07
vn 1 0 1.192093E-07
vn 1 1.490116E-08 3.576278E-07
vn 1 1.490116E-08 3.576278E-07
vn 1 1.490116E-08 3.576278E-07
vn 1 1.490116E-08 3.576278E-07
vn 0 0 -1
vn 0 0 -1
vn 0 0 -1
vn 0 0 -1
vn 1 0 1.192093E-07
vn 1 0 1.192093E-07
vn 1 0 1.192093E-07
vn 1 0 1.192093E-07
vn -0.9563047 0 0.2923719
vn -0.9563047 0 0.2923719
vn -0.9563047 0 0.2923719
vn -0.9563047 0 0.2923719
vn 0 0 -1
vn 0 0 -1
vn 0 0 -1
vn 0 0 -1
vn 1 0 1.192093E-07
vn 1 0 1.192093E-07
vn 1 0 1.192093E-07
vn 1 0 1.192093E-07
vn 1 0 1.192093E-07
vn 1 0 1.192093E-07
vn 1 0 1.192093E-07
vn 1 0 1.192093E-07
vn 1 0 1.192093E-07
vn 1 0 1.192093E-07
vn 1 0 1.192093E-07
vn 1 0 1.192093E-07
g _0
f 3/3/3 2/2/2 1/1/1
f 4/4/4 1/1/1 2/2/2
f 7/7/7 6/6/6 5/5/5
f 8/8/8 5/5/5 6/6/6
f 11/11/11 10/10/10 9/9/9
f 12/12/12 9/9/9 10/10/10
f 15/15/15 14/14/14 13/13/13
f 16/16/16 13/13/13 14/14/14
f 19/19/19 18/18/18 17/17/17
f 20/20/20 17/17/17 18/18/18
f 23/23/23 22/22/22 21/21/21
f 24/24/24 21/21/21 22/22/22
f 27/27/27 26/26/26 25/25/25
f 28/28/28 25/25/25 26/26/26
f 31/31/31 30/30/30 29/29/29
f 32/32/32 29/29/29 30/30/30
f 35/35/35 34/34/34 33/33/33
f 36/36/36 33/33/33 34/34/34
f 39/39/39 38/38/38 37/37/37
f 40/40/40 37/37/37 38/38/38
f 43/43/43 42/42/42 41/41/41
f 44/44/44 41/41/41 42/42/42
f 47/47/47 46/46/46 45/45/45
f 48/48/48 45/45/45 46/46/46
f 51/51/51 50/50/50 49/49/49
f 52/52/52 49/49/49 50/50/50
f 55/55/55 54/54/54 53/53/53
f 56/56/56 53/53/53 54/54/54
f 59/59/59 58/58/58 57/57/57
f 60/60/60 57/57/57 58/58/58
f 63/63/63 62/62/62 61/61/61
f 64/64/64 61/61/61 62/62/62
f 67/67/67 66/66/66 65/65/65
f 68/68/68 65/65/65 66/66/66
f 71/71/71 70/70/70 69/69/69
f 72/72/72 69/69/69 70/70/70
f 75/75/75 74/74/74 73/73/73
f 76/76/76 73/73/73 74/74/74
f 79/79/79 78/78/78 77/77/77
f 80/80/80 77/77/77 78/78/78
f 83/83/83 82/82/82 81/81/81
f 84/84/84 81/81/81 82/82/82
f 87/87/87 86/86/86 85/85/85
f 88/88/88 85/85/85 86/86/86
f 91/91/91 90/90/90 89/89/89
f 92/92/92 89/89/89 90/90/90
f 95/95/95 94/94/94 93/93/93
f 96/96/96 93/93/93 94/94/94
f 99/99/99 98/98/98 97/97/97
f 100/100/100 97/97/97 98/98/98
f 103/103/103 102/102/102 101/101/101
f 104/104/104 101/101/101 102/102/102
f 107/107/107 106/106/106 105/105/105
f 108/108/108 105/105/105 106/106/106
f 111/111/111 110/110/110 109/109/109
f 112/112/112 109/109/109 110/110/110
f 115/115/115 114/114/114 113/113/113
f 116/116/116 113/113/113 114/114/114
f 119/119/119 118/118/118 117/117/117
f 120/120/120 117/117/117 118/118/118
f 123/123/123 122/122/122 121/121/121
f 124/124/124 121/121/121 122/122/122
f 127/127/127 126/126/126 125/125/125
f 128/128/128 125/125/125 126/126/126
f 131/131/131 130/130/130 129/129/129
f 132/132/132 129/129/129 130/130/130
f 135/135/135 134/134/134 133/133/133
f 136/136/136 133/133/133 134/134/134
f 139/139/139 138/138/138 137/137/137
f 140/140/140 137/137/137 138/138/138
f 143/143/143 142/142/142 141/141/141
f 144/144/144 141/141/141 142/142/142
f 147/147/147 146/146/146 145/145/145
f 148/148/148 145/145/145 146/146/146
f 151/151/151 150/150/150 149/149/149
f 152/152/152 149/149/149 150/150/150
f 155/155/155 154/154/154 153/153/153
f 156/156/156 153/153/153 154/154/154
f 159/159/159 158/158/158 157/157/157
f 160/160/160 157/157/157 158/158/158
f 163/163/163 162/162/162 161/161/161
f 164/164/164 161/161/161 162/162/162
f 167/167/167 166/166/166 165/165/165
f 168/168/168 165/165/165 166/166/166
f 171/171/171 170/170/170 169/169/169
f 172/172/172 169/169/169 170/170/170
f 175/175/175 174/174/174 173/173/173
f 176/176/176 173/173/173 174/174/174
f 179/179/179 178/178/178 177/177/177
f 180/180/180 177/177/177 178/178/178
f 183/183/183 182/182/182 181/181/181
f 184/184/184 181/181/181 182/182/182
f 187/187/187 186/186/186 185/185/185
f 188/188/188 185/185/185 186/186/186
f 191/191/191 190/190/190 189/189/189
f 192/192/192 189/189/189 190/190/190
f 195/195/195 194/194/194 193/193/193
f 196/196/196 193/193/193 194/194/194
f 199/199/199 198/198/198 197/197/197
f 200/200/200 197/197/197 198/198/198
f 203/203/203 202/202/202 201/201/201
f 204/204/204 201/201/201 202/202/202
f 207/207/207 206/206/206 205/205/205
f 208/208/208 205/205/205 206/206/206
f 211/211/211 210/210/210 209/209/209
f 212/212/212 209/209/209 210/210/210
f 215/215/215 214/214/214 213/213/213
f 216/216/216 213/213/213 214/214/214
f 219/219/219 218/218/218 217/217/217
f 220/220/220 217/217/217 218/218/218
f 223/223/223 222/222/222 221/221/221
f 224/224/224 221/221/221 222/222/222
f 227/227/227 226/226/226 225/225/225
f 228/228/228 225/225/225 226/226/226
f 231/231/231 230/230/230 229/229/229
f 232/232/232 229/229/229 230/230/230
f 235/235/235 234/234/234 233/233/233
f 236/236/236 233/233/233 234/234/234
f 239/239/239 238/238/238 237/237/237
f 240/240/240 237/237/237 238/238/238
f 243/243/243 242/242/242 241/241/241
f 244/244/244 241/241/241 242/242/242
f 247/247/247 246/246/246 245/245/245
f 248/248/248 245/245/245 246/246/246
f 251/251/251 250/250/250 249/249/249
f 252/252/252 249/249/249 250/250/250
f 255/255/255 254/254/254 253/253/253
f 256/256/256 253/253/253 254/254/254
f 259/259/259 258/258/258 257/257/257
f 260/260/260 257/257/257 258/258/258
f 263/263/263 262/262/262 261/261/261
f 264/264/264 261/261/261 262/262/262
f 267/267/267 266/266/266 265/265/265
f 268/268/268 265/265/265 266/266/266
f 271/271/271 270/270/270 269/269/269
f 272/272/272 269/269/269 270/270/270
f 275/275/275 274/274/274 273/273/273
f 276/276/276 273/273/273 274/274/274
f 279/279/279 278/278/278 277/277/277
f 280/280/280 277/277/277 278/278/278
f 283/283/283 282/282/282 281/281/281
f 284/284/284 281/281/281 282/282/282
f 287/287/287 286/286/286 285/285/285
f 288/288/288 285/285/285 286/286/286
f 291/291/291 290/290/290 289/289/289
f 292/292/292 289/289/289 290/290/290
f 295/295/295 294/294/294 293/293/293
f 296/296/296 293/293/293 294/294/294
f 299/299/299 298/298/298 297/297/297
f 300/300/300 297/297/297 298/298/298
f 303/303/303 302/302/302 301/301/301
f 304/304/304 301/301/301 302/302/302
