g 
v -625.1785 -152.0002 -1499.598
v 625.1791 348.0001 -1500.402
v 624.8215 -151.9999 -1499.598
v -624.8209 347.9998 -1500.402
v 617.9799 -152.0001 -1501.986
v 1502.02 348.0001 -618.0137
v 1501.864 -151.9999 -618.103
v 618.1363 347.9999 -1501.897
v 624.8209 -151.9998 1499.598
v -624.8216 347.9999 1500.402
v -625.1791 -152.0001 1499.598
v 625.1784 348.0002 1500.402
v -1499.866 -152 624.9314
v -1500.134 347.9999 -624.9319
v -1499.866 -152.0001 -625.0685
v -1500.134 348 625.0679
v -618.1924 -151.9999 1501.875
v -1501.808 347.9999 618.1254
v -1502.076 -152.0001 617.9912
v -617.9242 348.0001 1502.009
v 1501.83 -151.9998 618.0359
v 618.17 348.0001 1501.964
v 617.9466 -151.9999 1501.919
v 1502.053 348.0002 618.0806
v 1499.285 -152 -625.058
v 1500.715 348.0002 625.0585
v 1499.285 -152 624.9421
v 1500.715 348.0001 -624.9416
v -1502.221 -152.0002 -618.1028
v -617.779 347.9999 -1501.897
v -618.3377 -152.0001 -1501.987
v -1501.662 347.9998 -618.0134
v 1500 -101.9995 1500
v -1500 -102.0005 -1500
v 1500 -101.9997 -1500
v -1500 -102.0003 1500
vt 0.0625 0.125
vt 0.3125 0.625
vt 0.3125 0.125
vt 0.0625 0.625
vt 0.0625 0.125
vt 0.3125 0.625
vt 0.3125 0.125
vt 0.0625 0.625
vt 0.0625 0.125
vt 0.3125 0.625
vt 0.3125 0.125
vt 0.0625 0.625
vt 0.0625 0.125
vt 0.3125 0.625
vt 0.3125 0.125
vt 0.0625 0.625
vt 0.0625 0.125
vt 0.3125 0.625
vt 0.3125 0.125
vt 0.0625 0.625
vt 0.0625 0.125
vt 0.3125 0.625
vt 0.3125 0.125
vt 0.0625 0.625
vt 0.0625 0.125
vt 0.3125 0.625
vt 0.3125 0.125
vt 0.0625 0.625
vt 0.0625 0.125
vt 0.3125 0.625
vt 0.3125 0.125
vt 0.0625 0.625
vt 0.4375 0.125
vt 0.5 0.25
vt 0.5 0.125
vt 0.4375 0.25
vn 2.980232E-07 5.976372E-08 1
vn 2.980232E-07 5.976372E-08 1
vn 2.980232E-07 5.976372E-08 1
vn 2.980232E-07 5.976372E-08 1
vn -0.7071066 -1.264355E-07 0.707107
vn -0.7071066 -1.264355E-07 0.707107
vn -0.7071066 -1.264355E-07 0.707107
vn -0.7071066 -1.264355E-07 0.707107
vn 5.960466E-08 -5.944574E-08 -1
vn 5.960466E-08 -5.944574E-08 -1
vn 5.960466E-08 -5.944574E-08 -1
vn 5.960466E-08 -5.944574E-08 -1
vn 1 2.384782E-07 1.720964E-07
vn 1 2.384782E-07 1.720964E-07
vn 1 2.384782E-07 1.720964E-07
vn 1 2.384782E-07 1.720964E-07
vn 0.7071068 1.264107E-07 -0.7071068
vn 0.7071068 1.264107E-07 -0.7071068
vn 0.7071068 1.264107E-07 -0.7071068
vn 0.7071068 1.264107E-07 -0.7071068
vn -0.7071068 -2.106846E-07 -0.7071068
vn -0.7071068 -2.106846E-07 -0.7071068
vn -0.7071068 -2.106846E-07 -0.7071068
vn -0.7071068 -2.106846E-07 -0.7071068
vn -1 -2.381801E-07 1.650785E-07
vn -1 -2.381801E-07 1.650785E-07
vn -1 -2.381801E-07 1.650785E-07
vn -1 -2.381801E-07 1.650785E-07
vn 0.7071071 2.106201E-07 0.7071065
vn 0.7071071 2.106201E-07 0.7071065
vn 0.7071071 2.106201E-07 0.7071065
vn 0.7071071 2.106201E-07 0.7071065
vn -1.788139E-07 1 0
vn -1.788139E-07 1 0
vn -1.788139E-07 1 0
vn -1.788139E-07 1 0
g _0
f 3/3/3 2/2/2 1/1/1
f 4/4/4 1/1/1 2/2/2
f 7/7/7 6/6/6 5/5/5
f 8/8/8 5/5/5 6/6/6
f 11/11/11 10/10/10 9/9/9
f 12/12/12 9/9/9 10/10/10
f 15/15/15 14/14/14 13/13/13
f 16/16/16 13/13/13 14/14/14
f 19/19/19 18/18/18 17/17/17
f 20/20/20 17/17/17 18/18/18
f 23/23/23 22/22/22 21/21/21
f 24/24/24 21/21/21 22/22/22
f 27/27/27 26/26/26 25/25/25
f 28/28/28 25/25/25 26/26/26
f 31/31/31 30/30/30 29/29/29
f 32/32/32 29/29/29 30/30/30
f 35/35/35 34/34/34 33/33/33
f 36/36/36 33/33/33 34/34/34
